<svg height="514pt" viewBox="-144 0 514 514.4389" width="514pt" xmlns="http://www.w3.org/2000/svg"><path d="m97.929688 513.484375c-56.71875-7.296875-97.710938-58.335937-97.710938-115.519531v-313.992188c0-41.960937 30.59375-79.496094 72.34375-83.578125 47.90625-4.679687 88.414062 33.019531 88.414062 79.992188v319.621093c0 23.324219-15.722656 44.753907-38.613281 49.191407-30.785156 5.980469-57.839843-17.554688-57.839843-47.296875v-289.363282c0-8.875 7.203124-16.078124 16.074218-16.078124 8.875 0 16.078125 7.203124 16.078125 16.078124v289.363282c0 8.875 7.199219 16.078125 16.074219 16.078125s16.078125-7.203125 16.078125-16.078125v-319.617188c0-23.328125-15.722656-44.757812-38.617187-49.195312-30.785157-5.980469-57.839844 17.554687-57.839844 47.296875v317.933593c0 41.957032 30.59375 79.492188 72.339844 83.578126 47.90625 4.660156 88.417968-33.019532 88.417968-79.996094v-289.363282c0-8.875 7.203125-16.078124 16.078125-16.078124 8.871094 0 16.074219 7.203124 16.074219 16.078124v289.363282c0 66.925781-58.742188 120.394531-127.351562 111.582031zm0 0" fill="#77959e"/></svg>