<svg height="512pt" viewBox="0 -28 512 512" width="512pt" xmlns="http://www.w3.org/2000/svg"><path d="m473.800781 87.75h-261c25.398438 54.601562 1.597657 119.398438-53 144.601562-27 12.597657-57.800781 13.398438-85.402343 2.597657v139c0 18.402343 14.800781 33.199219 33.203124 33.199219h366.199219c18.398438 0 33.199219-14.796876 33.199219-33.199219v-253c0-18.398438-14.800781-33.199219-33.199219-33.199219zm0 0" fill="#55acd5"/><path d="m473.800781 87.75h-261c18.199219 39.398438 11.398438 85.800781-17.402343 118.199219l63.402343 59.402343c15.597657 17.199219 45.398438 17 63.800781 0l176.796876-165.601562c-6.398438-7.601562-15.796876-12-25.597657-12zm0 0" fill="#acdef9"/><path d="m322.601562 265.351562c-16 17.597657-43.203124 19-60.800781 3-1-1-2-2-3-3l-12.199219-11.402343-164.601562 141.199219c6.398438 7.601562 15.800781 12 25.601562 12h366.199219c10 0 19.398438-4.398438 25.597657-12l-164.597657-141.199219zm0 0" fill="#acdef9"/><path d="m223 133.550781c0 60.199219-48.800781 109-109 109s-109-48.800781-109-109 48.800781-109 109-109 109 48.800781 109 109zm0 0" fill="#ea4647"/><path d="m127 184.949219c0 7.734375-6.269531 14-14 14s-14-6.265625-14-14c0-7.730469 6.269531-14 14-14s14 6.269531 14 14zm0 0" fill="#e9e9ea"/><path d="m113 152.949219c-5.601562 0-10.398438-4.398438-11-10l-5.199219-54.199219c-.800781-9 5.597657-17 14.597657-17.800781h1.601562c9 0 16.398438 7.402343 16.398438 16.402343v1.597657l-5.398438 54c-.601562 5.601562-5.398438 10-11 10zm0 0" fill="#e9e9ea"/><path d="m275.601562 33.949219h-3.601562v-3.597657c0-2.800781-2.199219-5-5-5s-5 2.199219-5 5v3.597657h-3.601562c-2.796876 0-5 2.199219-5 5s2.203124 5 5 5h3.601562v3.601562c0 2.800781 2.199219 5 5 5s5-2.199219 5-5v-3.601562h3.601562c2.796876 0 5-2.199219 5-5s-2.203124-5-5-5zm0 0" fill="#ffcd29"/><path d="m222.199219 3.949219c0-.398438-.199219-.597657-.199219-1-.199219-.199219-.199219-.597657-.398438-.800781-.203124-.199219-.402343-.597657-.601562-.796876-2-1.800781-5-1.800781-7 0-.199219.199219-.398438.398438-.601562.796876-.398438.601562-.597657 1.203124-.796876 1.800781-.203124.601562-.203124 1.402343 0 2 0 .402343.199219.601562.199219 1 .199219.402343.199219.601562.398438.800781s.402343.601562.601562.800781c2 2 5 2 7 0 .199219-.199219.398438-.402343.597657-.800781.203124-.199219.402343-.601562.402343-.800781.199219-.199219.199219-.597657.199219-1 .199219-.800781.199219-1.398438.199219-2zm0 0" fill="#ea4647"/><path d="m102.199219 449.949219c0-.398438-.199219-.597657-.199219-1-.199219-.199219-.199219-.597657-.398438-.800781-.203124-.199219-.402343-.597657-.601562-.796876-2-1.800781-5-1.800781-7 0-.199219.199219-.398438.398438-.601562.796876-.398438.601562-.597657 1.203124-.796876 1.800781-.203124.601562-.203124 1.402343 0 2 0 .402343.199219.601562.199219 1 .199219.402343.199219.601562.398438.800781s.402343.601562.601562.800781c2 2 5 2 7 0 .199219-.199219.398438-.402343.597657-.800781.203124-.199219.402343-.601562.402343-.800781.199219-.199219.199219-.597657.199219-1 .199219-.597657.199219-1.398438.199219-2zm0 0" fill="#55acd5"/><path d="m63.800781 418.148438c-6.601562-1.199219-11.800781-6.398438-13.199219-13.199219 0-.199219-.203124-.199219-.402343-.199219s-.199219.199219-.199219.199219c-1.199219 6.601562-6.398438 11.800781-13.199219 13.199219-.199219 0-.199219.203124-.199219.402343s.199219.199219.199219.199219c6.597657 1.199219 11.800781 6.398438 13.199219 13.199219 0 .199219.199219.199219.398438.199219.203124 0 .203124-.199219.203124-.199219 1.199219-6.597657 6.398438-11.800781 13.199219-13.199219.199219 0 .199219-.199219.199219-.398438 0-.203124 0-.203124-.199219-.203124zm0 0" fill="#6dcc6d"/><path d="m114 247.550781c-63 0-114-51-114-114s51-114 114-114 114 51 114 114c-.199219 63-51.199219 114-114 114zm0-217.800781c-57.398438 0-104 46.601562-104 104s46.601562 104 104 104 104-46.601562 104-104c-.199219-57.398438-46.800781-104-104-104zm0 0"/><path d="m473.800781 412.148438h-366.199219c-21.203124 0-38.203124-17.199219-38.203124-38.199219v-138.800781c0-2.796876 2.203124-5 5-5 .601562 0 1.203124.203124 1.800781.402343 53.402343 20.800781 113.800781-5.601562 134.601562-59 10.199219-26.402343 9.398438-55.800781-2.601562-81.601562-1.199219-2.597657 0-5.398438 2.402343-6.597657.597657-.402343 1.398438-.402343 2.199219-.402343h261c21.199219 0 38.199219 17.199219 38.199219 38.199219v252.800781c0 21.199219-17.199219 38.199219-38.199219 38.199219zm-394.402343-170v131.800781c0 15.601562 12.601562 28.199219 28.203124 28.199219h366.199219c15.597657 0 28.199219-12.597657 28.199219-28.199219v-253c0-15.597657-12.601562-28.199219-28.199219-28.199219h-253.601562c5 13 7.601562 26.800781 7.601562 40.800781 0 63-51 114-114 114-11.601562 0-23.199219-1.800781-34.402343-5.402343zm0 0"/><path d="m289.601562 283.148438c-.800781 0-1.601562 0-2.402343 0-12-.398438-23.597657-5.398438-32-14.199219l-63.199219-59.398438c-2-1.800781-2.199219-5-.398438-7 27.398438-31 34-75.199219 16.597657-112.800781-1.199219-2.601562 0-5.398438 2.402343-6.601562.597657-.398438 1.398438-.398438 2.199219-.398438h261c11.398438 0 22.199219 5 29.398438 13.800781 1.601562 2 1.402343 5-.398438 6.800781l-176.800781 165.597657c-10 9.199219-23 14.199219-36.398438 14.199219zm-87.402343-77.597657 60 56.199219s.199219.199219.199219.199219c6.601562 7 15.601562 11 25 11.199219 11.601562.601562 23-3.597657 31.601562-11.398438l173.199219-162c-5.199219-4.398438-11.800781-7-18.597657-7h-253.402343c14.601562 38.199219 7.800781 81.199219-18 112.800781zm0 0"/><path d="m473.800781 412.148438h-366.199219c-11.402343 0-22.203124-5-29.402343-13.796876-1.800781-2.203124-1.398438-5.203124.601562-7l164.597657-141.203124c2-1.597657 4.800781-1.597657 6.601562.203124l12.199219 11.398438c.199219 0 .199219.199219.199219.199219 14.203124 15.601562 38.203124 16.800781 53.601562 2.601562 1-.800781 1.800781-1.800781 2.601562-2.601562 0-.199219.199219-.199219.199219-.199219l12.199219-11.398438c1.800781-1.800781 4.800781-1.800781 6.601562-.203124l164.597657 141.203124c2 1.796876 2.402343 4.796876.601562 7-6.800781 8.796876-17.601562 13.796876-29 13.796876zm-384.601562-16.796876c5.199219 4.398438 11.601562 6.796876 18.402343 6.796876h366.199219c6.800781 0 13.199219-2.398438 18.398438-6.796876l-157.199219-134.800781-8.800781 8.199219c-17.800781 19.601562-48.199219 21-67.800781 3-1-1-2-2-3-3l-8.796876-8.199219zm0 0"/><path d="m113 203.949219c-10.398438 0-19-8.597657-19-19 0-10.398438 8.601562-19 19-19s19 8.601562 19 19c0 10.402343-8.601562 19-19 19zm0-28c-5 0-9 4-9 9s4 9 9 9 9-4 9-9-4-9-9-9zm0 0"/><path d="m113 157.949219c-8.199219 0-15.199219-6.199219-16-14.398438l-5.199219-54.199219c-1.199219-11.800781 7.398438-22.203124 19.199219-23.402343s22.199219 7.402343 23.398438 19.199219c.203124 1.402343.203124 2.800781 0 4.203124l-5.199219 54.199219c-1 8.199219-8 14.398438-16.199219 14.398438zm0-82c-6.199219 0-11.398438 5-11.398438 11.402343v1.199219l5.199219 54.199219c.398438 3.398438 3.199219 5.800781 6.597657 5.398438 2.800781-.199219 5.203124-2.597657 5.402343-5.398438l5.199219-54.199219c.601562-6.199219-4-11.800781-10.199219-12.402343 0-.199219-.402343-.199219-.800781-.199219zm0 0"/></svg>