<?xml version="1.0"?>
<svg xmlns="http://www.w3.org/2000/svg" height="512px" viewBox="0 0 64 64" width="512px"><g><g id="Important_email" data-name="Important email"><path d="m30.668 47.07 16.832-14.961a8.989 8.989 0 0 1 -3.441-6.109h-38.429l23.7 21.072a1.011 1.011 0 0 0 1.338-.002z" data-original="#000000" class="active-path" data-old_color="#000000" fill="#FF782D"/><path d="m36.752 44.339-4.758 4.228a3.015 3.015 0 0 1 -3.986 0l-4.759-4.231-17.619 15.664h48.74z" data-original="#000000" class="active-path" data-old_color="#000000" fill="#FF782D"/><path d="m4 58.773 17.744-15.772-17.744-15.774z" data-original="#000000" class="active-path" data-old_color="#000000" fill="#FF782D"/><path d="m56 33.475a8.872 8.872 0 0 1 -6.706-.283l-11.037 9.808 17.743 15.773z" data-original="#000000" class="active-path" data-old_color="#000000" fill="#FF782D"/><path d="m60 25a7 7 0 1 0 -7 7 7.008 7.008 0 0 0 7-7zm-6 5a1 1 0 0 1 -2 0v-1a1 1 0 0 1 2 0zm0-4a1 1 0 0 1 -2 0v-6a1 1 0 0 1 2 0z" data-original="#000000" class="active-path" data-old_color="#000000" fill="#FF782D"/></g></g> </svg>
